<svg xmlns="http://www.w3.org/2000/svg" version="1.1" xmlns:xlink="http://www.w3.org/1999/xlink" xmlns:svgjs="http://svgjs.com/svgjs" width="1440" height="560" preserveAspectRatio="none" viewBox="0 0 1440 560"><g mask="url(&quot;#SvgjsMask1000&quot;)" fill="none"><rect width="1440" height="560" x="0" y="0" fill="#0e2a47"></rect><g transform="translate(0, 0)" stroke-linecap="round"><path d="M260 158.88 L260 401.13" stroke-width="15" stroke="#3a7cc3"></path><path d="M280 135.45 L280 424.55" stroke-width="15" stroke="#dd1133"></path><path d="M300 150.06 L300 409.94" stroke-width="15" stroke="#dd1133"></path><path d="M320 196.17 L320 363.83" stroke-width="15" stroke="#dd1133"></path><path d="M340 118.8 L340 441.2" stroke-width="15" stroke="#dd1133"></path><path d="M360 177.8 L360 382.2" stroke-width="15" stroke="#dd1133"></path><path d="M380 148.42 L380 411.58" stroke-width="15" stroke="#dd1133"></path><path d="M400 236.09 L400 323.91" stroke-width="15" stroke="#dd1133"></path><path d="M420 230.46 L420 329.54" stroke-width="15" stroke="#dd1133"></path><path d="M440 150.91 L440 409.1" stroke-width="15" stroke="#3a7cc3"></path><path d="M460 225.26 L460 334.74" stroke-width="15" stroke="#dd1133"></path><path d="M480 171 L480 389" stroke-width="15" stroke="#3a7cc3"></path><path d="M500 202.33 L500 357.67" stroke-width="15" stroke="#dd1133"></path><path d="M520 192.28 L520 367.73" stroke-width="15" stroke="#dd1133"></path><path d="M540 242.55 L540 317.45" stroke-width="15" stroke="#3a7cc3"></path><path d="M560 200.27 L560 359.73" stroke-width="15" stroke="#3a7cc3"></path><path d="M580 111.04 L580 448.96" stroke-width="15" stroke="#dd1133"></path><path d="M600 181.72 L600 378.28" stroke-width="15" stroke="#dd1133"></path><path d="M620 233.87 L620 326.13" stroke-width="15" stroke="#3a7cc3"></path><path d="M640 214.64 L640 345.36" stroke-width="15" stroke="#dd1133"></path><path d="M660 182.55 L660 377.45" stroke-width="15" stroke="#dd1133"></path><path d="M680 172.09 L680 387.91" stroke-width="15" stroke="#3a7cc3"></path><path d="M700 110.02 L700 449.98" stroke-width="15" stroke="#3a7cc3"></path><path d="M720 189.39 L720 370.61" stroke-width="15" stroke="#dd1133"></path><path d="M740 215.12 L740 344.88" stroke-width="15" stroke="#3a7cc3"></path><path d="M760 151.07 L760 408.93" stroke-width="15" stroke="#dd1133"></path><path d="M780 168.96 L780 391.04" stroke-width="15" stroke="#3a7cc3"></path><path d="M800 255.56 L800 304.44" stroke-width="15" stroke="#dd1133"></path><path d="M820 162.97 L820 397.03" stroke-width="15" stroke="#dd1133"></path><path d="M840 118.46 L840 441.54" stroke-width="15" stroke="#dd1133"></path><path d="M860 121.07 L860 438.93" stroke-width="15" stroke="#3a7cc3"></path><path d="M880 120.37 L880 439.63" stroke-width="15" stroke="#dd1133"></path><path d="M900 151.09 L900 408.91" stroke-width="15" stroke="#3a7cc3"></path><path d="M920 144.7 L920 415.3" stroke-width="15" stroke="#dd1133"></path><path d="M940 178.16 L940 381.84" stroke-width="15" stroke="#dd1133"></path><path d="M960 254.63 L960 305.37" stroke-width="15" stroke="#3a7cc3"></path><path d="M980 252.32 L980 307.68" stroke-width="15" stroke="#3a7cc3"></path><path d="M1000 212.92 L1000 347.08" stroke-width="15" stroke="#dd1133"></path><path d="M1020 144.82 L1020 415.18" stroke-width="15" stroke="#3a7cc3"></path><path d="M1040 167.5 L1040 392.5" stroke-width="15" stroke="#3a7cc3"></path><path d="M1060 106.81 L1060 453.19" stroke-width="15" stroke="#3a7cc3"></path><path d="M1080 246.19 L1080 313.81" stroke-width="15" stroke="#dd1133"></path><path d="M1100 126.29 L1100 433.71" stroke-width="15" stroke="#3a7cc3"></path><path d="M1120 150.51 L1120 409.49" stroke-width="15" stroke="#dd1133"></path><path d="M1140 111.3 L1140 448.7" stroke-width="15" stroke="#dd1133"></path><path d="M1160 161.36 L1160 398.64" stroke-width="15" stroke="#dd1133"></path><path d="M1180 236.32 L1180 323.68" stroke-width="15" stroke="#dd1133"></path></g></g><defs><mask id="SvgjsMask1000"><rect width="1440" height="560" fill="#ffffff"></rect></mask></defs></svg>